<svg id="Layer_1" data-name="Layer 1" xmlns="http://www.w3.org/2000/svg" xmlns:xlink="http://www.w3.org/1999/xlink" viewBox="0 0 671 240.27"><defs><style>.cls-1,.cls-2,.cls-3{isolation:isolate;}.cls-2,.cls-3{font-size:100px;font-family:Arial-BoldMT, Arial;font-weight:700;}.cls-2,.cls-3,.cls-5{fill:#4f3829;}.cls-2{letter-spacing:0.03em;}.cls-4{fill:url(#linear-gradient);}.cls-6{fill:#fff;}.cls-7{fill:url(#linear-gradient-2);}.cls-8{fill:url(#linear-gradient-3);}.cls-9{fill:url(#linear-gradient-4);}.cls-10{fill:url(#linear-gradient-5);}</style><linearGradient id="linear-gradient" x1="105.45" y1="287.58" x2="105.45" y2="608.38" gradientTransform="translate(0 -298.82)" gradientUnits="userSpaceOnUse"><stop offset="0" stop-color="#88634e"/><stop offset="1" stop-color="#604534"/></linearGradient><linearGradient id="linear-gradient-2" x1="105.35" y1="337.07" x2="105.35" y2="384.31" gradientTransform="translate(0 -298.82)" gradientUnits="userSpaceOnUse"><stop offset="0" stop-color="#4f3829"/><stop offset="0.03" stop-color="#795844"/><stop offset="1" stop-color="#301e0f"/></linearGradient><linearGradient id="linear-gradient-3" x1="103.33" y1="450.67" x2="103.33" y2="499.02" gradientTransform="translate(0 -298.82)" gradientUnits="userSpaceOnUse"><stop offset="0" stop-color="#5e4434"/><stop offset="1" stop-color="#332114"/></linearGradient><linearGradient id="linear-gradient-4" x1="103.85" y1="436.35" x2="103.85" y2="538.23" gradientTransform="translate(0 -298.82)" gradientUnits="userSpaceOnUse"><stop offset="0" stop-color="#4f3829" stop-opacity="0"/><stop offset="0.18" stop-color="#483224" stop-opacity="0.24"/><stop offset="0.68" stop-color="#372517" stop-opacity="0.79"/><stop offset="0.97" stop-color="#312012" stop-opacity="0.99"/><stop offset="0.99" stop-color="#463122"/><stop offset="1" stop-color="#4f3829"/></linearGradient><linearGradient id="linear-gradient-5" x1="105.34" y1="386.89" x2="105.34" y2="405.41" gradientTransform="translate(0 -298.82)" gradientUnits="userSpaceOnUse"><stop offset="0" stop-color="#2a1808"/><stop offset="0.29" stop-color="#2f1c0c" stop-opacity="0.87"/><stop offset="0.65" stop-color="#3c2818" stop-opacity="0.51"/><stop offset="1" stop-color="#4f3829" stop-opacity="0"/></linearGradient></defs><title>winnifi_brown_horizontal</title><g class="cls-1"><text class="cls-2" transform="translate(224.03 144.67)">W</text><text class="cls-3" transform="translate(317.93 144.67)">innifi.io</text></g><path class="cls-4" d="M60,241.2c-18.12,0-37.41-7.14-46.9-17.36S-.72,200.77.1,184.79c1.14-23.13,8.31-44.49,15.17-62.34,8-20.74,16.7-41.61,25.14-61.78Q43,54.4,45.65,48.13c1.43-3.43,1.12-5.15-1.39-7.65A24.1,24.1,0,0,1,36.8,22.83,22.83,22.83,0,0,1,44.56,6.39,19.93,19.93,0,0,1,58.25.69a26.79,26.79,0,0,1,13.18,4,6.69,6.69,0,0,0,3.37,1,8.62,8.62,0,0,0,3-.64,80,80,0,0,1,27.73-5,81.77,81.77,0,0,1,27.61,4.93,9.88,9.88,0,0,0,3,.5A5.2,5.2,0,0,0,138.5,5C143.74,2.1,148.4.71,152.72.71c5.73,0,10.76,2.43,15.39,7.44a21.85,21.85,0,0,1,0,30.33c-4.29,4.46-3.75,7.43-1.6,12.7,11.44,28.09,23.24,57.06,34,85.85a163.49,163.49,0,0,1,10.28,47.69c.9,15.12-3.74,29-13.06,39s-22.22,15.64-37.55,16.45c-2.24.12-4.45.18-6.56.18a84,84,0,0,1-20.36-2.27c-12.3-3.09-19.86-13.15-18.81-25,.68-7.76,5.56-12.75,11-17h-3.28c-1.38,0-2.76,0-4.14-.05h-2.48c-1.35,0-4.9,0-5-4.27a4.34,4.34,0,0,1,1.13-3.4,5.49,5.49,0,0,1,4-1.18h2.51c.72,0,1.49-.07,2.41-.07h4.14c2.74,0,4.71-.05,5.21-.63s.2-2.47-.38-5.25h-12.9c-1.67,0-4-.19-5.27-1.65a3.67,3.67,0,0,1-.63-3.26c.42-2,3.78-3.84,5.75-4a57.11,57.11,0,0,1,6-.26c1.33,0,2.66,0,4,.05h3c.63-2.67,1-4.59.46-5.21s-2.62-.7-5.52-.7h-8.29c-2,0-5.57,0-5.68-4.28a4.2,4.2,0,0,1,1.09-3.26c1.14-1.13,2.83-1.22,4.46-1.22H129.6c-.09-12.16-9.36-21.79-22.39-23.07-.72-.07-1.47-.11-2.21-.11-11.78,0-22.58,8.87-23.58,19.37-.94,9.79-.85,19.87-.76,29.61,0,3.25.06,6.5,0,9.75a3.81,3.81,0,0,0,1.86,2.28c10.11,5.26,14.62,12.34,13.79,21.64-.84,9.46-6.46,16.25-17.16,20.75A50.4,50.4,0,0,1,60,241.2Zm45.28-195a25.24,25.24,0,0,0-17.84,7.31c-8.91,8.77-11.58,18.63-8,29.3C81.66,89.34,87.27,95,95.67,97.2a39.83,39.83,0,0,0,10.07,1.39h0c7.69,0,14.65-2.44,19.61-6.86s7.43-11.24,7.31-18c-.68-8.3-3.73-14.93-9.31-20.23a26.26,26.26,0,0,0-18.12-7.28Zm-21-14.69c-3.26,0-5.13,1.83-5.27,5.14a4.8,4.8,0,0,0,1.42,3.56,5.46,5.46,0,0,0,3.81,1.63h0a5.45,5.45,0,0,0,5.27-5.62h0c-.23-3-2.13-4.7-5.22-4.7h0ZM127,31.43h-.36c-3.54.31-5.32,2-5.29,5.19s1.92,5.1,5.19,5.1,5.1-1.77,5.27-4.82c0-3-2.18-5.45-4.82-5.45Z"/><path class="cls-5" d="M128.33,195.16c-3.44,0-6.88.07-10.32,0-2.68-.08-6.35.85-6.43-3.29-.09-4.53,3.87-3.42,6.65-3.59,2.16-.13,4.34,0,6.5,0,7,0,7.25-.29,5.63-7.8h-13.7c-2.69,0-5.61-.55-4.94-3.76.3-1.4,3.08-3.09,4.88-3.27,4.58-.47,9.24-.16,13.74-.16,1.78-7.47,1.49-7.83-5.86-7.84-2.33,0-4.67.05-7,0-2.6-.07-5.84.47-5.94-3.35s3.11-3.51,5.74-3.51h13.3c.42-13.19-9.61-23.65-23.27-25-12.55-1.23-25.71,7.81-26.89,20.13-1.25,13.06-.68,26.29-.71,39.45,0,1.06,1.29,2.56,2.38,3.13C90.69,200.77,96.25,207,95.36,217S87.87,233.14,78.79,237c-18.82,7.92-51.24,1-64.92-13.71C3.7,212.24.38,199.17,1.08,184.87c1.06-21.57,7.41-42,15.1-62,9.59-25,20.08-49.6,30.38-74.3C48,45,47.9,42.83,45,39.89,35.17,30.1,35.49,16,45.21,7.17,52.47.55,61-.08,70.88,5.59c2.51,1.43,4.37,1.53,7.21.48,18.13-6.68,36.37-6.64,54.63-.14,1.85.66,4.62.84,6.21,0,11.52-6.29,20.55-5.47,28.38,3a21,21,0,0,1,0,29c-4.71,4.89-3.94,8.42-1.79,13.71,11.61,28.5,23.22,57,34,85.82a162.68,162.68,0,0,1,10.22,47.42c1.8,30.16-18.39,52.81-49.67,54.46-8.83.46-18.11.08-26.61-2.06-12.34-3.11-19-13.2-18.06-24C116.12,205,121.65,200.06,128.33,195.16Zm4.41-121.42c-.55-7-2.76-14.49-9.23-20.87-10.22-10.09-26.15-10.22-36.15,0-8.8,9-11.44,19.31-7.87,30.22,2.18,6.66,7.59,11.63,16.31,14,19.54,5.44,37.26-5.38,36.94-23.35Zm0-36.74c0-3.78-2.89-6.78-6.25-6.49-3.74.32-6.24,2.28-6.2,6.16s2.44,6.07,6.23,6.06S132.55,40.45,132.74,37Zm-42.23-.77c-.25-3.32-2.38-5.67-6.22-5.67S78.18,32.8,78,36.63a6.19,6.19,0,0,0,6.19,6.19h0a6.36,6.36,0,0,0,6.28-6.44h0Z"/><ellipse class="cls-6" cx="126.5" cy="36.72" rx="5.48" ry="6.4" transform="translate(-2.79 61.95) rotate(-27.23)"/><ellipse class="cls-6" cx="84.3" cy="36.67" rx="6.4" ry="5.48" transform="translate(13.12 94.85) rotate(-62.77)"/><path class="cls-7" d="M119.5,80.09a4.56,4.56,0,0,1-2.92,1.61c-4.11.86-8.08,0-11.23-.79-3.15.79-7.11,1.65-11.23.79a4.47,4.47,0,0,1-2.92-1.61c-.84-.92-.88-3.18,1-2.82a11.33,11.33,0,0,0,2.56.72c1.26.08,6.38.07,6.79,0a1,1,0,0,0,.84-.81c.07-5.6-.19-9.78-5.28-12.74-2-1.16-3.36-4.94-3.11-7.35.14-1.41,3.91-3.08,6.27-3.52a28.09,28.09,0,0,1,10.18,0c2.36.44,6.13,2.11,6.27,3.52.25,2.41-1.12,6.19-3.11,7.35-5.09,3-5.34,7.14-5.28,12.74a1,1,0,0,0,.84.81A67.65,67.65,0,0,0,116,78a12.12,12.12,0,0,0,2.57-.72C120.38,76.91,120.35,79.17,119.5,80.09Z"/><g id="_4j3Lxh" data-name=" 4j3Lxh"><path class="cls-6" d="M104.32,135.33c4.54,0,4.54-.25,9.08-.1,1.26.05,5.57.21,6.53.87,4.63,3.16,27.42,17.14,29.09,40,0,18.22-17.63,25.54-24.2,28.49-7.64,3.11-14.33,4.81-20.47,4.79-5.78,0-8.26-.33-18.81-3.52-7.93-2.63-28.06-11.54-28-29.29,0-19.7,27.93-40.3,30.5-40.2,1.56.07,3.25-.93,4.89-1C97.4,135.05,99.78,135.33,104.32,135.33Zm.08,36.58a19.45,19.45,0,0,1,3.91.9c2.1,1,2.93,0,3.64-1.69.92-2.1-.75-2.33-2.07-3-1-.76-2-1.56-3-2.42a5.2,5.2,0,0,0-2.71-1.32,4.66,4.66,0,0,0-2.5,1.56c-.77.76-1.13,2.06-2,2.54-2.5,1.37-4.84,3.19-4.14,5.94.53,2.08,2.49,4.06,4.31,5.51,1.53,1.23,3.84,1.51,5.67,2.45a1.86,1.86,0,0,1-.58,3.65,15,15,0,0,1-5.45-.47c-2-.65-3.2-.8-4,1.39-1,2.54.93,2.81,2.54,3.35s3.84.33,3.69,3c0,.31,1.63,1,2.48,1s2.35-.78,2.34-1.19c0-2,1.4-2.39,2.61-3.43a12.69,12.69,0,0,0,4.07-5.72c.69-2.61-1.38-4.62-3.77-5.85-1.73-.89-3.68-1.36-5.41-2.26a10.62,10.62,0,0,1-2.26-2.18Z"/><path class="cls-6" d="M117.49,139.25c-8.34,0-17.16.05-26-.07a3.92,3.92,0,0,1-2.67-1.58c-2.12-3.07-4.1-6.24-6-9.45-2-3.39-.64-5.69,3.35-6,1.62-.11,3.25-.08,4.88-.1,3.19-.06,5.51-1.2,6.72-4.31a6.1,6.1,0,0,1,5.81-4.1,7,7,0,0,1,6.58,3.6c3,4.64,3,4.58,7.78,2,2.32-1.22,4.93-2,7.15,0s1.4,4.43.24,6.53C122.94,130.25,120.27,134.59,117.49,139.25Z"/><path class="cls-6" d="M104.4,171.91l-2.67,1.76a10.62,10.62,0,0,0,2.26,2.18c1.73.9,3.68,1.37,5.41,2.26,2.39,1.23,4.46,3.24,3.77,5.85a12.69,12.69,0,0,1-4.07,5.72c-1.21,1-2.65,1.47-2.61,3.43,0,.41-1.5,1.16-2.34,1.19s-2.5-.68-2.48-1c.15-2.72-2-2.49-3.69-3.05s-3.53-.81-2.54-3.35c.85-2.19,2.08-2,4-1.39a15,15,0,0,0,5.45.47,1.86,1.86,0,0,0,.58-3.65c-1.83-.94-4.14-1.22-5.67-2.45-1.82-1.45-3.78-3.43-4.31-5.51-.7-2.75,1.64-4.57,4.14-5.94.88-.48,1.24-1.78,2-2.54a4.66,4.66,0,0,1,2.5-1.56,5.2,5.2,0,0,1,2.71,1.32c1,.86,2,1.66,3,2.42,1.32.71,3,.94,2.07,3-.71,1.66-1.54,2.69-3.64,1.69A19.59,19.59,0,0,0,104.4,171.91Z"/></g><g id="P9fnVQ.tif"><path class="cls-8" d="M105.77,156.23a13.07,13.07,0,0,1,6.43,2.56c.79.62.83.8.34,1.67s-.93,1.67-1.41,2.5-.73.76-1.4.26a10,10,0,0,0-5.29-2.15,5.76,5.76,0,0,0-3.74.82,2.68,2.68,0,0,0-1.22,3.59,2.74,2.74,0,0,0,.89,1,19.26,19.26,0,0,0,3.52,1.9c1.75.8,3.59,1.43,5.3,2.29,2.53,1.27,4.22,3.19,4.39,6.06a8.52,8.52,0,0,1-6.84,9c-.82.2-1.06.5-1,1.27s0,1.66,0,2.49c0,.65-.26,1-1,1H102.3c-.82,0-1-.31-1-1v-2.85c0-.48-.09-.69-.65-.79a14.41,14.41,0,0,1-6.88-3.23c-.89-.76-.91-1-.2-1.88.55-.73,1.11-1.45,1.68-2.17s.78-.7,1.43-.16a11.06,11.06,0,0,0,6.29,2.72,5.62,5.62,0,0,0,3.07-.58,3.1,3.1,0,0,0,1.89-2.84,2.85,2.85,0,0,0-1.73-2.62c-1.43-.73-2.94-1.33-4.4-2s-2.89-1.3-4.28-2.06a7.22,7.22,0,0,1-3.94-7.19c.29-3.34,2.34-5.47,5.38-6.83a10.63,10.63,0,0,1,1.82-.56c.4-.09.52-.26.51-.63v-3.13c0-.66.28-1,1-1h2.37c.81,0,1,.19,1,1Z"/></g><path class="cls-9" d="M128.7,112.59c-18.95-4.71-45.68-1.16-52.14.76s-45.5,18.14-45.47,50.75c0,29.4,38.16,49.65,49.52,50.86C91.28,216.1,94,219.38,94,223a20.89,20.89,0,0,0,1.34-6,17.92,17.92,0,0,0-1.1-8.7c-2.22-.52-5-1.28-8.73-2.43-7.92-2.63-28.06-11.53-28-29.29,0-19.7,27.92-40.31,30.49-40.2h0c-1.81-2.68-3.51-5.42-5.14-8.2-2-3.39-.64-5.69,3.35-5.95,1.62-.11,3.25-.08,4.88-.1,3.19-.06,5.51-1.19,6.72-4.31a6.1,6.1,0,0,1,5.81-4.1,7,7,0,0,1,6.59,3.6c3,4.64,3,4.58,7.77,2,2.32-1.22,4.93-2,7.15,0s1.4,4.42.24,6.52c-1.84,3.35-3.82,6.63-5.88,10.07a1.58,1.58,0,0,1,.44.2c4.63,3.16,27.42,17.14,29.1,40,0,18.23-17.63,25.54-24.21,28.5-1.75,1.45-4.8,2.56-8.18,3.35a15.92,15.92,0,0,0-1.24,5.26,22.48,22.48,0,0,0,1.21,9.55c0-3.06,1.77-6.24,13.23-8.39,13-2.44,46.76-20.89,46.76-51.07C173.81,125.48,129,112.65,128.7,112.59Z"/><path class="cls-10" d="M79.06,81.43s0,22.66,27.12,22.65c23.24,0,25.44-22.68,25.44-22.68s-4,16.81-26.2,17.13C98,98.59,82.77,95.49,79.06,81.43Z"/><path class="cls-6" d="M118.24,207a4.25,4.25,0,0,0-3.49,3.78c-.57,3.6-1.38,1.56-1.38,1.56l1.09-5.53Z"/><path class="cls-6" d="M92.65,207.88a4.27,4.27,0,0,1,3.49,3.79c.57,3.6,1.38,1.56,1.38,1.56l-1.09-5.53Z"/></svg>